<svg preserveAspectRatio="none" overflow="visible" style="display: block;" width="142" height="27" viewBox="0 0 142 27" fill="none" xmlns="http://www.w3.org/2000/svg">
<g id="Settings/signin/menu">
<path id="Help Icon" d="M7.5735 18.549H9.2565V16.866H7.5735V18.549ZM8.415 5.085C3.76992 5.085 0 8.85492 0 13.5C0 18.1451 3.76992 21.915 8.415 21.915C13.0601 21.915 16.83 18.1451 16.83 13.5C16.83 8.85492 13.0601 5.085 8.415 5.085ZM8.415 20.232C4.70399 20.232 1.683 17.211 1.683 13.5C1.683 9.78899 4.70399 6.768 8.415 6.768C12.126 6.768 15.147 9.78899 15.147 13.5C15.147 17.211 12.126 20.232 8.415 20.232ZM8.415 8.451C6.55528 8.451 5.049 9.95728 5.049 11.817H6.732C6.732 10.8913 7.48935 10.134 8.415 10.134C9.34065 10.134 10.098 10.8913 10.098 11.817C10.098 13.5 7.5735 13.2896 7.5735 16.0245H9.2565C9.2565 14.1311 11.781 13.9207 11.781 11.817C11.781 9.95728 10.2747 8.451 8.415 8.451Z" fill="#64676C"/>
<g id="Settings Icon">
<path id="Vector" d="M39.4567 10.9985C39.8122 9.90751 40.3952 8.9044 41.1673 8.0555C41.2312 7.98541 41.3144 7.93579 41.4065 7.91289C41.4985 7.89 41.5953 7.89485 41.6846 7.92684L43.5266 8.58235C43.6574 8.62873 43.7967 8.64623 43.935 8.63365C44.0732 8.62107 44.2071 8.57871 44.3274 8.50948C44.4477 8.44025 44.5516 8.34579 44.632 8.23258C44.7123 8.11938 44.7672 7.99013 44.7929 7.8537L45.145 5.93593C45.1622 5.84272 45.2066 5.75669 45.2727 5.68871C45.3387 5.62073 45.4234 5.57386 45.5161 5.554C46.6412 5.31533 47.8039 5.31533 48.9291 5.554C49.1187 5.59464 49.265 5.74497 49.3002 5.93593L49.6523 7.8537C49.6775 7.99035 49.7322 8.11989 49.8124 8.23334C49.8926 8.34679 49.9966 8.44145 50.117 8.51075C50.2375 8.58006 50.3715 8.62235 50.51 8.63471C50.6484 8.64708 50.7878 8.62921 50.9186 8.58235L52.7606 7.92684C52.8499 7.89485 52.9466 7.89 53.0387 7.91289C53.1308 7.93579 53.214 7.98541 53.2779 8.0555C54.0485 8.90468 54.6323 9.90691 54.9871 10.9985C55.0164 11.0887 55.0182 11.1856 54.9921 11.2768C54.9661 11.368 54.9134 11.4494 54.8408 11.5105L53.3483 12.7714C53.2421 12.8607 53.1567 12.9723 53.0981 13.0981C53.0395 13.224 53.0091 13.3612 53.0091 13.5C53.0091 13.6389 53.0395 13.776 53.0981 13.9019C53.1567 14.0278 53.2421 14.1393 53.3483 14.2287L54.8408 15.4896C54.9898 15.6155 55.0467 15.8173 54.9871 16.0015C54.6321 17.0924 54.0495 18.0955 53.2779 18.9445C53.214 19.0146 53.1308 19.0642 53.0387 19.0871C52.9466 19.11 52.8499 19.1052 52.7606 19.0732L50.9186 18.4177C50.7878 18.3713 50.6485 18.3538 50.5102 18.3664C50.372 18.3789 50.2381 18.4213 50.1178 18.4905C49.9974 18.5598 49.8935 18.6542 49.8132 18.7674C49.7328 18.8806 49.678 19.0099 49.6523 19.1463L49.3002 21.0641C49.2831 21.1576 49.2385 21.2438 49.1722 21.3118C49.1058 21.3799 49.0207 21.4266 48.9277 21.446C47.803 21.6847 46.6408 21.6847 45.5161 21.446C45.4232 21.4264 45.3382 21.3796 45.2719 21.3116C45.2055 21.2436 45.1609 21.1575 45.1437 21.0641L44.7929 19.1463C44.7676 19.0097 44.713 18.8801 44.6328 18.7667C44.5525 18.6532 44.4486 18.5586 44.3281 18.4893C44.2077 18.42 44.0736 18.3777 43.9352 18.3653C43.7968 18.3529 43.6574 18.3708 43.5266 18.4177L41.6846 19.0732C41.5953 19.1052 41.4985 19.11 41.4065 19.0871C41.3144 19.0642 41.2312 19.0146 41.1673 18.9445C40.3957 18.0955 39.8132 17.0924 39.4581 16.0015C39.4288 15.9113 39.427 15.8144 39.4531 15.7232C39.4791 15.632 39.5318 15.5507 39.6043 15.4896L41.0968 14.2287C41.2029 14.1392 41.2881 14.0276 41.3466 13.9017C41.4051 13.7759 41.4353 13.6388 41.4353 13.5C41.4353 13.3612 41.4051 13.2241 41.3466 13.0983C41.2881 12.9724 41.2029 12.8609 41.0968 12.7714L39.6043 11.5105C39.5318 11.4494 39.4791 11.368 39.4531 11.2768C39.427 11.1856 39.4288 11.0887 39.4581 10.9985H39.4567ZM44.8511 13.5C44.8511 14.1286 45.1008 14.7315 45.5453 15.1759C45.9898 15.6204 46.5926 15.8701 47.2212 15.8701C47.8498 15.8701 48.4527 15.6204 48.8972 15.1759C49.3417 14.7315 49.5914 14.1286 49.5914 13.5C49.5914 12.8714 49.3417 12.2686 48.8972 11.8241C48.4527 11.3796 47.8498 11.1299 47.2212 11.1299C46.5926 11.1299 45.9898 11.3796 45.5453 11.8241C45.1008 12.2686 44.8511 12.8714 44.8511 13.5Z" stroke="#4F4F4F" stroke-width="2"/>
<circle id="Ellipse 1" cx="46.6106" cy="13.3951" r="1.61056" fill="#4F4F4F" stroke="#4F4F4F"/>
</g>
<path id="Menu Apps Icon" fill-rule="evenodd" clip-rule="evenodd" d="M77.6153 7.81538C77.6153 8.75724 78.3788 9.52077 79.3206 9.52077C80.2625 9.52077 81.026 8.75724 81.026 7.81538C81.026 6.87353 80.2625 6.11 79.3206 6.11C78.3788 6.11 77.6153 6.87353 77.6153 7.81538ZM77.6153 13.5C77.6153 14.4419 78.3788 15.2054 79.3206 15.2054C80.2625 15.2054 81.026 14.4419 81.026 13.5C81.026 12.5581 80.2625 11.7946 79.3206 11.7946C78.3788 11.7946 77.6153 12.5581 77.6153 13.5ZM81.026 19.1846C81.026 20.1265 80.2625 20.89 79.3206 20.89C78.3788 20.89 77.6153 20.1265 77.6153 19.1846C77.6153 18.2428 78.3788 17.4792 79.3206 17.4792C80.2625 17.4792 81.026 18.2428 81.026 19.1846ZM83.3 19.1846C83.3 20.1265 84.0635 20.89 85.0054 20.89C85.9472 20.89 86.7107 20.1265 86.7107 19.1846C86.7107 18.2428 85.9472 17.4792 85.0054 17.4792C84.0635 17.4792 83.3 18.2428 83.3 19.1846ZM92.3952 13.5C92.3952 14.4419 91.6317 15.2054 90.6898 15.2054C89.748 15.2054 88.9845 14.4419 88.9845 13.5C88.9845 12.5581 89.748 11.7946 90.6898 11.7946C91.6317 11.7946 92.3952 12.5581 92.3952 13.5ZM83.3 13.5C83.3 14.4419 84.0635 15.2054 85.0054 15.2054C85.9472 15.2054 86.7107 14.4419 86.7107 13.5C86.7107 12.5581 85.9472 11.7946 85.0054 11.7946C84.0635 11.7946 83.3 12.5581 83.3 13.5ZM92.3952 19.1846C92.3952 20.1265 91.6317 20.89 90.6898 20.89C89.748 20.89 88.9845 20.1265 88.9845 19.1846C88.9845 18.2428 89.748 17.4792 90.6898 17.4792C91.6317 17.4792 92.3952 18.2428 92.3952 19.1846ZM90.6898 6.11C89.748 6.11 88.9845 6.87353 88.9845 7.81538C88.9845 8.75724 89.748 9.52077 90.6898 9.52077C91.6317 9.52077 92.3952 8.75724 92.3952 7.81538C92.3952 6.87353 91.6317 6.11 90.6898 6.11ZM86.7107 7.81538C86.7107 8.75724 85.9472 9.52077 85.0054 9.52077C84.0635 9.52077 83.3 8.75724 83.3 7.81538C83.3 6.87353 84.0635 6.11 85.0054 6.11C85.9472 6.11 86.7107 6.87353 86.7107 7.81538Z" fill="#4F4F4F"/>
<g id="Profile Pic">
<path id="Vector_2" d="M120.927 22.0929C120.943 20.8391 121.449 19.6422 122.334 18.7612C123.219 17.8802 124.413 17.386 125.658 17.3853H131.342C132.587 17.386 133.78 17.8802 134.666 18.7612C135.551 19.6422 136.057 20.8391 136.073 22.0929C133.995 23.98 131.297 25.0244 128.5 25.0244C125.703 25.0244 123.005 23.98 120.927 22.0929ZM132.764 10.2238C132.764 11.0736 132.514 11.9044 132.045 12.611C131.577 13.3176 130.911 13.8684 130.132 14.1936C129.353 14.5188 128.495 14.6039 127.668 14.4381C126.841 14.2723 126.081 13.8631 125.485 13.2622C124.889 12.6612 124.483 11.8956 124.318 11.0621C124.154 10.2285 124.238 9.36456 124.561 8.5794C124.884 7.79424 125.43 7.12315 126.131 6.65099C126.832 6.17884 127.657 5.92683 128.5 5.92683C129.631 5.92683 130.715 6.37954 131.515 7.18537C132.314 7.9912 132.764 9.08415 132.764 10.2238Z" fill="white"/>
<path id="Vector_3" d="M138.882 22.1109C140.268 20.4449 141.232 18.4699 141.692 16.353C142.153 14.236 142.096 12.0395 141.527 9.94909C140.958 7.8587 139.893 5.93598 138.423 4.34358C136.954 2.75118 135.121 1.53596 133.082 0.800698C131.043 0.0654404 128.856 -0.168215 126.707 0.119497C124.558 0.407209 122.51 1.20783 120.737 2.45362C118.963 3.69941 117.515 5.35373 116.517 7.27662C115.518 9.19952 114.998 11.3344 115 13.5007C115.001 16.6499 116.111 19.6983 118.137 22.1109L118.118 22.1273C118.185 22.2083 118.263 22.2777 118.332 22.3577C118.419 22.457 118.513 22.5506 118.602 22.647C118.872 22.9401 119.15 23.2216 119.442 23.4858C119.531 23.5668 119.622 23.642 119.712 23.7192C120.021 23.9853 120.338 24.2379 120.667 24.4731C120.71 24.5021 120.748 24.5397 120.791 24.5696V24.558C123.051 26.1471 125.747 27 128.511 27C131.274 27 133.97 26.1471 136.23 24.558V24.5696C136.273 24.5397 136.311 24.5021 136.354 24.4731C136.682 24.2369 137 23.9853 137.309 23.7192C137.399 23.642 137.491 23.5659 137.579 23.4858C137.871 23.2207 138.149 22.9401 138.419 22.647C138.509 22.5506 138.601 22.457 138.689 22.3577C138.758 22.2777 138.836 22.2083 138.903 22.1263L138.882 22.1109ZM128.51 5.78728C129.368 5.78728 130.208 6.04174 130.922 6.5185C131.636 6.99526 132.193 7.67289 132.521 8.4657C132.85 9.25852 132.936 10.1309 132.769 10.9726C132.601 11.8142 132.187 12.5873 131.58 13.1941C130.973 13.8009 130.199 14.2141 129.357 14.3816C128.514 14.549 127.641 14.463 126.848 14.1347C126.054 13.8063 125.376 13.2501 124.899 12.5366C124.422 11.8231 124.167 10.9842 124.167 10.1261C124.167 8.97537 124.625 7.87178 125.439 7.05809C126.253 6.2444 127.358 5.78728 128.51 5.78728ZM120.797 22.1109C120.813 20.8449 121.328 19.6364 122.23 18.7468C123.132 17.8572 124.348 17.3581 125.615 17.3575H131.405C132.672 17.3581 133.888 17.8572 134.789 18.7468C135.691 19.6364 136.206 20.8449 136.223 22.1109C134.106 24.0164 131.359 25.071 128.51 25.071C125.661 25.071 122.913 24.0164 120.797 22.1109Z" fill="#2F80ED"/>
</g>
</g>
</svg>
